HIERARCHY
ROOT Hips
{
	OFFSET 0.000000 88.474243 0.000000
	CHANNELS 6 Xposition Yposition Zposition Zrotation Yrotation Xrotation 
	JOINT Hips_Spine
	{
		OFFSET 0.000000 0.000000 0.000000
		CHANNELS 3 Zrotation Yrotation Xrotation
		JOINT Spine
		{
			OFFSET 0.005100 8.711998 -0.691000
			CHANNELS 3 Zrotation Yrotation Xrotation
			JOINT Spine1
			{
				OFFSET -0.009200 8.660301 -1.275000
				CHANNELS 3 Zrotation Yrotation Xrotation
				JOINT Spine2
				{
					OFFSET 0.006300 9.852501 -1.857000
					CHANNELS 3 Zrotation Yrotation Xrotation
					JOINT Spine2_Neck
					{
						OFFSET 0.000000 0.000000 0.000000
						CHANNELS 3 Zrotation Yrotation Xrotation
						JOINT Neck
						{
							OFFSET 0.016300 11.420799 -0.263300
							CHANNELS 3 Zrotation Yrotation Xrotation
							End Site #name: Head
							{
								OFFSET -0.019200 9.262405 2.362500
							}
						}
					}
					JOINT Spine2_LeftShoulder
					{
						OFFSET 0.000000 0.000000 0.000000
						CHANNELS 3 Zrotation Yrotation Xrotation
						JOINT LeftShoulder
						{
							OFFSET 5.616900 6.732201 -0.345700
							CHANNELS 3 Zrotation Yrotation Xrotation
							JOINT LeftArm
							{
								OFFSET 10.664888 -0.183372 -2.440700
								CHANNELS 3 Zrotation Yrotation Xrotation
								JOINT LeftForeArm
								{
									OFFSET 27.459126 0.000000 0.000000
									CHANNELS 3 Zrotation Yrotation Xrotation
									End Site #name: LeftHand
									{
										OFFSET 21.306858 0.000000 0.000000
									}
								}
							}
						}
					}
					JOINT Spine2_RightShoulder
					{
						OFFSET 0.000000 0.000000 0.000000
						CHANNELS 3 Zrotation Yrotation Xrotation
						JOINT RightShoulder
						{
							OFFSET -5.580300 6.737503 -0.344400
							CHANNELS 3 Zrotation Yrotation Xrotation
							JOINT RightArm
							{
								OFFSET -10.679335 -0.188484 -2.383900
								CHANNELS 3 Zrotation Yrotation Xrotation
								JOINT RightForeArm
								{
									OFFSET -27.503529 0.000000 0.000000
									CHANNELS 3 Zrotation Yrotation Xrotation
									End Site #name: RightHand
									{
										OFFSET -21.306808 0.000000 0.000000
									}
								}
							}
						}
					}
				}
			}
		}
	}
	JOINT Hips_LeftUpLeg
	{
		OFFSET 0.000000 0.000000 0.000000
		CHANNELS 3 Zrotation Yrotation Xrotation
		JOINT LeftUpLeg
		{
			OFFSET 6.857700 -6.739601 0.312100
			CHANNELS 3 Zrotation Yrotation Xrotation
			JOINT LeftLeg
			{
				OFFSET -0.367590 -34.731552 -4.572400
				CHANNELS 3 Zrotation Yrotation Xrotation
				End Site #name: LeftFoot
				{
					OFFSET 0.367590 -34.656704 -6.067400
				}
			}
		}
	}
	JOINT Hips_RightUpLeg
	{
		OFFSET 0.000000 0.000000 0.000000
		CHANNELS 3 Zrotation Yrotation Xrotation
		JOINT RightUpLeg
		{
			OFFSET -6.876100 -6.733299 0.301000
			CHANNELS 3 Zrotation Yrotation Xrotation
			JOINT RightLeg
			{
				OFFSET 0.347353 -34.795158 -4.515900
				CHANNELS 3 Zrotation Yrotation Xrotation
				End Site #name: RightFoot
				{
					OFFSET -0.347353 -34.589367 -6.070300
				}
			}
		}
	}
}
MOTION
Frames: 9
Frame Time: 0.041667
-0.140760 0.188804 -1.420184 -4.071632 0.323649 -2.651958 0.000000 -0.000000 0.000000 2.449898 1.529929 16.476667 0.243211 0.414600 2.905699 0.000000 0.000000 0.000000 0.480124 0.306063 2.285584 0.998527 0.084314 8.417353 0.496464 0.412096 2.555009 -4.816973 2.993127 -1.240277 -63.461081 2.238894 4.985907 -0.198203 -47.703772 1.148117 0.221973 0.551442 3.292519 7.270424 -6.151905 0.354511 70.324934 12.256687 11.908337 1.122655 80.518622 1.190143 -0.000000 0.000000 0.000000 7.043195 10.539388 -53.779064 6.599251 -3.560987 51.103354 0.000000 0.000000 0.000000 -4.429724 -7.082676 -47.705025 0.893731 -1.035685 55.881041 
-0.145625 0.194613 -1.462412 -4.058993 0.312146 -2.652767 0.000000 -0.000000 0.000000 2.452437 1.530887 16.462756 0.246381 0.415086 2.904730 0.000000 0.000000 0.000000 0.484169 0.305527 2.287456 0.999847 0.084306 8.390064 0.502320 0.412539 2.557124 -4.831891 2.930264 -1.231335 -63.446188 2.191086 4.864475 -0.189580 -47.183441 1.137327 0.224612 0.552337 3.294230 7.328970 -6.156838 0.351510 70.393925 12.327761 12.073162 1.047840 79.848725 1.120883 -0.000000 0.000000 0.000000 7.043304 10.538494 -53.771378 6.603624 -3.560758 51.092714 0.000000 0.000000 0.000000 -4.423564 -7.085019 -47.692584 0.892796 -1.039722 55.876023 
-0.149397 0.200122 -1.504402 -4.048218 0.301717 -2.652611 0.000000 -0.000000 0.000000 2.456018 1.533828 16.443043 0.250165 0.415731 2.898470 0.000000 0.000000 0.000000 0.488984 0.305097 2.285828 0.999247 0.085051 8.356135 0.508174 0.412294 2.555189 -4.845623 2.848948 -1.217134 -63.429898 2.160984 4.750595 -0.178004 -46.479547 1.125041 0.228346 0.553618 3.293657 7.401213 -6.157114 0.347915 70.470647 12.425083 12.260454 0.968660 78.965950 1.049174 -0.000000 -0.000000 0.000000 7.043425 10.541042 -53.768297 6.606128 -3.561019 51.087327 0.000000 0.000000 0.000000 -4.419336 -7.088413 -47.682709 0.890682 -1.043284 55.873036 
-0.152062 0.205438 -1.546213 -4.038727 0.292956 -2.652692 0.000000 -0.000000 0.000000 2.460813 1.534766 16.421665 0.254696 0.416804 2.891823 0.000000 0.000000 0.000000 0.495142 0.304888 2.283780 0.998697 0.087486 8.314800 0.515812 0.412232 2.552191 -4.864160 2.760651 -1.201782 -63.406239 2.105729 4.607406 -0.166298 -45.667289 1.110272 0.232414 0.554970 3.292591 7.483776 -6.163553 0.342621 70.561222 12.556240 12.467042 0.885485 77.812452 0.976124 -0.000000 -0.000000 0.000000 7.043844 10.545680 -53.762337 6.609011 -3.560797 51.083216 0.000000 0.000000 0.000000 -4.414765 -7.090433 -47.662973 0.888637 -1.046359 55.858381 
-0.153591 0.210510 -1.587838 -4.030947 0.285115 -2.651504 0.000000 -0.000000 0.000000 2.467002 1.535383 16.403891 0.259847 0.417497 2.885808 0.000000 0.000000 0.000000 0.502481 0.304808 2.282742 0.997496 0.090288 8.268652 0.525276 0.412847 2.550565 -4.888588 2.657126 -1.182841 -63.378642 2.038466 4.459542 -0.151806 -44.706187 1.094509 0.237534 0.557211 3.292087 7.575039 -6.165958 0.338070 70.654688 12.710785 12.730945 0.799929 76.451302 0.903175 -0.000000 -0.000000 0.000000 7.045263 10.547034 -53.756260 6.609672 -3.558793 51.075074 0.000000 0.000000 0.000000 -4.410057 -7.089632 -47.646329 0.888494 -1.049483 55.842682 
-0.153923 0.215417 -1.629289 -4.025032 0.277985 -2.651798 0.000000 -0.000000 0.000000 2.475912 1.537709 16.383104 0.266073 0.418222 2.879440 0.000000 0.000000 0.000000 0.510679 0.305565 2.281718 0.994316 0.094717 8.218331 0.535327 0.413880 2.550370 -4.916582 2.547995 -1.161231 -63.344176 1.965656 4.301031 -0.138287 -43.668527 1.078999 0.243204 0.559687 3.291286 7.668047 -6.160659 0.334690 70.723994 12.874625 13.007808 0.722768 74.951574 0.840319 -0.000000 -0.000000 0.000000 7.046357 10.550462 -53.750576 6.612320 -3.557051 51.065509 0.000000 0.000000 0.000000 -4.406131 -7.090202 -47.632863 0.889198 -1.052448 55.827598 
-0.153165 0.220177 -1.670497 -4.021055 0.271992 -2.650441 0.000000 -0.000000 0.000000 2.486780 1.540640 16.362033 0.273475 0.419273 2.872206 0.000000 0.000000 0.000000 0.520835 0.306480 2.280677 0.989790 0.099636 8.163382 0.547068 0.415453 2.548874 -4.951090 2.431380 -1.139525 -63.323210 1.890829 4.123614 -0.124117 -42.537224 1.062041 0.249665 0.562310 3.290504 7.757749 -6.146856 0.329646 70.782875 13.040160 13.324080 0.658540 73.348831 0.793276 -0.000000 -0.000000 0.000000 7.047541 10.556166 -53.738222 6.615424 -3.555967 51.053455 0.000000 0.000000 0.000000 -4.403497 -7.088871 -47.618354 0.887939 -1.054654 55.813109 
-0.151310 0.224801 -1.711434 -4.018258 0.267400 -2.648399 0.000000 -0.000000 0.000000 2.498166 1.541446 16.333451 0.281526 0.420397 2.864919 0.000000 0.000000 0.000000 0.531989 0.307742 2.278260 0.985768 0.105970 8.103338 0.559927 0.417256 2.548023 -4.980576 2.310794 -1.115033 -63.297073 1.820648 3.962168 -0.109893 -41.314680 1.045905 0.260341 0.563177 3.290250 7.845191 -6.124639 0.327547 70.877945 13.184881 13.813732 0.590561 71.635977 0.731337 -0.000000 -0.000000 0.000000 7.047404 10.561248 -53.729656 6.618439 -3.552720 51.040509 0.000000 0.000000 0.000000 -4.401727 -7.089410 -47.606608 0.889677 -1.055906 55.800171 
-0.148346 0.229333 -1.752151 -4.017694 0.266004 -2.645714 0.000000 -0.000000 0.000000 2.510797 1.545128 16.301786 0.289974 0.421687 2.857519 0.000000 0.000000 0.000000 0.544225 0.309345 2.277406 0.981707 0.112034 8.038603 0.572569 0.419292 2.547952 -5.021172 2.179769 -1.089133 -63.270864 1.747810 3.804310 -0.094958 -40.033728 1.028527 0.274356 0.563028 3.291662 7.938233 -6.096359 0.325743 70.945295 13.382624 14.454353 0.518839 69.851194 0.651194 -0.000000 -0.000000 0.000000 7.049062 10.567181 -53.731688 6.621946 -3.547911 51.038174 0.000000 -0.000000 0.000000 -4.399318 -7.086364 -47.590187 0.887152 -1.059064 55.780301 
